<svg width="32" height="32" viewBox="0 0 32 32" fill="none" xmlns="http://www.w3.org/2000/svg">
<rect width="32" height="32" rx="4" fill="url(#paint0_linear_3_2)"/>
<path fill-rule="evenodd" clip-rule="evenodd" d="M10.627 9.01497C10.6808 9.01231 10.8769 9.01632 10.9046 9.05748C11.2019 9.49886 11.4685 9.9549 11.7351 10.4108C11.8505 10.6082 11.9659 10.8055 12.0838 11.0017L14.5737 15.1011C14.7058 15.3189 14.84 15.5429 14.9758 15.7697C15.4015 16.4805 15.8432 17.2182 16.2894 17.8755C16.602 17.4863 17.313 16.1901 17.7565 15.3817C17.8625 15.1885 17.9532 15.0232 18.0195 14.9048L21.3151 9.02389C21.9653 9.00862 22.6429 9.01262 23.3184 9.01661C23.8385 9.01968 24.3574 9.02274 24.8617 9.017L24.9219 9.01631C25.5081 9.00956 26.8183 8.99446 27.2886 9.05977C27.3131 9.08347 27.3308 9.09864 27.3435 9.10947C27.3598 9.12333 27.3677 9.13011 27.3709 9.13866C27.374 9.14684 27.3727 9.15663 27.3703 9.17579C27.3686 9.1889 27.3663 9.20639 27.3645 9.23075C27.2743 9.29068 27.0579 9.31195 26.855 9.33189C26.7427 9.34293 26.6346 9.35356 26.5542 9.37012C25.7183 9.5241 25.402 10.1611 25.3875 10.8298C25.3369 12.5172 25.3506 14.0768 25.3646 15.6633V15.6634C25.375 16.8365 25.3854 18.0244 25.3701 19.2897C25.3544 20.5904 25.8422 22.0137 27.2984 21.9679C28.2339 21.9679 28.2339 22.4429 27.2984 22.4429L25.7237 22.4442L21.9236 22.4458C21.8035 22.4458 21.6631 22.447 21.5102 22.4483C20.7941 22.4542 19.8017 22.4624 19.3115 22.3653L19.2587 22.2745C19.3668 22.1544 19.6735 22.0855 20.0042 22.0113C20.3732 21.9284 20.7719 21.8389 20.9577 21.664C21.2855 21.3557 21.5615 20.698 21.6089 20.2892C21.7039 19.472 21.6943 18.589 21.685 17.7295C21.6814 17.4027 21.6779 17.0792 21.6802 16.764C21.6863 15.9246 21.6822 15.0867 21.6781 14.2489V14.2488V14.2486V14.2485C21.6734 13.2661 21.6686 12.2839 21.6802 11.2999C21.6829 11.0724 21.6723 10.7425 21.4735 10.5815L21.3691 10.5853C21.055 10.8506 20.3455 12.1793 19.8549 13.098C19.6905 13.4059 19.5507 13.6678 19.4586 13.8281C18.7109 15.1295 17.9921 16.4641 17.2729 17.7993C16.4565 19.315 15.6396 20.8316 14.7797 22.3013C13.5625 20.4101 12.4043 18.4792 11.2466 16.5489L11.2466 16.5488C10.2877 14.9501 9.32912 13.3518 8.33739 11.7769C8.31192 11.7364 8.28446 11.6902 8.25498 11.6406C8.08671 11.3576 7.85266 10.9639 7.54606 10.8913C7.35926 11.0995 7.4019 13.1092 7.41478 13.7162C7.41547 13.7491 7.41608 13.7779 7.41656 13.802C7.42821 14.3864 7.42243 14.9762 7.41663 15.5679C7.39954 17.3111 7.38228 19.0714 7.80984 20.762C7.93282 21.2485 8.34826 21.6713 8.83571 21.9321C9.02383 22.0391 9.21204 22.0502 9.39263 22.0609C9.58702 22.0724 9.77259 22.0834 9.93974 22.2128L9.92825 22.331L9.81812 22.4088C9.22768 22.462 8.39954 22.4548 7.69056 22.4487C7.51285 22.4472 7.34262 22.4457 7.1855 22.4452C6.96027 22.4446 6.71977 22.4462 6.47164 22.4478H6.4715C5.67892 22.4528 4.80845 22.4584 4.10876 22.3951L4.02067 22.2839L4.01266 22.2913L4.01223 22.2898C4.32242 22.0733 4.65506 22.0149 4.97437 21.9587C5.64566 21.8408 6.25803 21.7332 6.47897 20.1898C6.79465 17.9847 6.76128 15.7612 6.72796 13.5406C6.71678 12.7961 6.70562 12.0519 6.70761 11.3089C6.70854 10.9645 6.55825 10.4634 6.39063 10.1566C6.20169 9.75101 5.57735 9.59034 5.06055 9.45735C4.73005 9.3723 4.44353 9.29857 4.34299 9.17932L4.39272 9.09785C4.80154 8.97416 8.11295 8.99811 9.80081 9.01031C10.1692 9.01297 10.4603 9.01508 10.627 9.01497ZM4.01266 22.2913L4.03725 22.3779L4 22.3028L4.01266 22.2913Z" fill="white"/>
<defs>
<linearGradient id="paint0_linear_3_2" x1="16" y1="0" x2="16" y2="39.1232" gradientUnits="userSpaceOnUse">
<stop stop-color="#00BFB3"/>
<stop offset="1" stop-color="#005953"/>
</linearGradient>
</defs>
</svg>
